0
SECTION
2
HEADER
9
$INSUNITS
70
4
0
ENDSEC
0
SECTION
2
TABLES
0
TABLE
2
LTYPE
0
LTYPE
72
65
70
64
2
CONTINUOUS
3
______
73
0
40
0
0
ENDTAB
0
TABLE
2
LAYER
0
ENDTAB
0
ENDSEC
0
SECTION
2
ENTITIES
0
LINE
8
0
10
-8.5
20
7.5
11
8.5
21
7.5
0
LINE
8
0
10
10
20
9
11
10
21
14.5
0
LINE
8
0
10
-10
20
9
11
-10
21
60
0
LINE
8
0
10
7
20
61.5
11
-8.5
21
61.5
0
LINE
8
0
10
11.5
20
16
11
27
21
16
0
LINE
8
0
10
28.5
20
17.5
11
28.5
21
18.75
0
LINE
8
0
10
25.5
20
70
11
10
21
70
0
LINE
8
0
10
8.5
20
68.5
11
8.5
21
63
0
LINE
8
0
10
30
20
20.25
11
44
21
20.25
0
LINE
8
0
10
47
20
71.5
11
47
21
72.75
0
LINE
8
0
10
45.5
20
74.25
11
28.5
21
74.25
0
LINE
8
0
10
27
20
72.75
11
27
21
71.5
0
LINE
8
0
10
45.5
20
18.75
11
45.5
21
18.0855306
0
LINE
8
0
10
48.5
20
70
11
82.5
21
70
0
LINE
8
0
10
84
20
15.0769588
11
84
21
68.5
0
LINE
8
0
10
59.6718079
20
-2.4201774
11
77.8567218
21
-4.0111513
0
LINE
8
0
10
78.2390184
20
-4.0959043
11
93.942298
21
-9.8114306
0
LINE
8
0
10
95.864867
20
-8.9149219
11
101.3371894
21
6.1201601
0
LINE
8
0
10
100.4406806
20
8.0427292
11
84.9869698
21
13.6674199
0
LINE
8
0
10
41.1950022
20
-2.4144694
11
59.5410744
21
-2.4144694
0
LINE
8
0
10
44
20
16.5855306
11
41.1950022
21
16.5855306
0
LINE
8
0
10
39.6950022
20
15.0855306
11
39.6950022
21
-0.9144694
0
LINE
8
0
10
219.5
20
7.5
11
236.5
21
7.5
0
LINE
8
0
10
238
20
9
11
238
21
60
0
LINE
8
0
10
218
20
14.5
11
218
21
9
0
LINE
8
0
10
236.5
20
61.5
11
221
21
61.5
0
LINE
8
0
10
201
20
16
11
216.5
21
16
0
LINE
8
0
10
199.5
20
18.75
11
199.5
21
17.5
0
LINE
8
0
10
219.5
20
63
11
219.5
21
68.5
0
LINE
8
0
10
218
20
70
11
202.5
21
70
0
LINE
8
0
10
184
20
20.25
11
198
21
20.25
0
LINE
8
0
10
201
20
71.5
11
201
21
72.75
0
LINE
8
0
10
199.5
20
74.25
11
182.5
21
74.25
0
LINE
8
0
10
181
20
72.75
11
181
21
71.5
0
LINE
8
0
10
182.5
20
18.0855306
11
182.5
21
18.75
0
LINE
8
0
10
145.5
20
70
11
179.5
21
70
0
LINE
8
0
10
144
20
15.0769588
11
144
21
68.5
0
LINE
8
0
10
150.1432782
20
-4.0111513
11
168.3281921
21
-2.4201774
0
LINE
8
0
10
134.057702
20
-9.8114306
11
149.7609816
21
-4.0959043
0
LINE
8
0
10
143.0130302
20
13.6674199
11
127.5593194
21
8.0427292
0
LINE
8
0
10
126.6628106
20
6.1201601
11
132.135133
21
-8.9149219
0
LINE
8
0
10
168.4589256
20
-2.4144694
11
186.8049978
21
-2.4144694
0
LINE
8
0
10
188.3049978
20
-0.9144694
11
188.3049978
21
15.0855306
0
LINE
8
0
10
186.8049978
20
16.5855306
11
184
21
16.5855306
0
ARC
8
0
10
8.5
20
9
40
1.5
50
270
51
0
0
ARC
8
0
10
11.5
20
14.5
40
1.5
50
90
51
180
0
ARC
8
0
10
27
20
17.5
40
1.5
50
270
51
0
0
ARC
8
0
10
30
20
18.75
40
1.5
50
90
51
180
0
ARC
8
0
10
44
20
18.75
40
1.5
50
0
51
90
0
ARC
8
0
10
44
20
18.0855306
40
1.5
50
270
51
0
0
ARC
8
0
10
41.1950022
20
15.0855306
40
1.5
50
90
51
180
0
ARC
8
0
10
41.1950022
20
-0.9144694
40
1.5
50
180
51
270
0
ARC
8
0
10
59.5410744
20
-3.9144694
40
1.5
50
85.0000024
51
90
0
ARC
8
0
10
77.7259883
20
-5.5054433
40
1.5
50
70.0000019
51
85.0000024
0
ARC
8
0
10
94.4553281
20
-8.4018917
40
1.5
50
250.0000019
51
340.0000019
0
ARC
8
0
10
99.9276505
20
6.6331903
40
1.5
50
340.0000019
51
70.0000019
0
ARC
8
0
10
85.5
20
15.0769588
40
1.5
50
180
51
250.0000019
0
ARC
8
0
10
82.5
20
68.5
40
1.5
50
0
51
90
0
ARC
8
0
10
48.5
20
71.5
40
1.5
50
180
51
270
0
ARC
8
0
10
45.5
20
72.75
40
1.5
50
0
51
90
0
ARC
8
0
10
28.5
20
72.75
40
1.5
50
90
51
180
0
ARC
8
0
10
25.5
20
71.5
40
1.5
50
270
51
0
0
ARC
8
0
10
10
20
68.5
40
1.5
50
90
51
180
0
ARC
8
0
10
7
20
63
40
1.5
50
270
51
0
0
ARC
8
0
10
-8.5
20
60
40
1.5
50
90
51
180
0
ARC
8
0
10
-8.5
20
9
40
1.5
50
180
51
270
0
ARC
8
0
10
236.5
20
9
40
1.5
50
270
51
0
0
ARC
8
0
10
236.5
20
60
40
1.5
50
0
51
90
0
ARC
8
0
10
221
20
63
40
1.5
50
180
51
270
0
ARC
8
0
10
218
20
68.5
40
1.5
50
0
51
90
0
ARC
8
0
10
202.5
20
71.5
40
1.5
50
180
51
270
0
ARC
8
0
10
199.5
20
72.75
40
1.5
50
0
51
90
0
ARC
8
0
10
182.5
20
72.75
40
1.5
50
90
51
180
0
ARC
8
0
10
179.5
20
71.5
40
1.5
50
270
51
0
0
ARC
8
0
10
145.5
20
68.5
40
1.5
50
90
51
180
0
ARC
8
0
10
142.5
20
15.0769588
40
1.5
50
289.9999981
51
0
0
ARC
8
0
10
128.0723495
20
6.6331903
40
1.5
50
109.9999981
51
199.9999981
0
ARC
8
0
10
133.5446719
20
-8.4018917
40
1.5
50
199.9999981
51
289.9999981
0
ARC
8
0
10
150.2740117
20
-5.5054433
40
1.5
50
94.9999976
51
109.9999981
0
ARC
8
0
10
168.4589256
20
-3.9144694
40
1.5
50
90
51
94.9999976
0
ARC
8
0
10
186.8049978
20
-0.9144694
40
1.5
50
270
51
0
0
ARC
8
0
10
186.8049978
20
15.0855306
40
1.5
50
0
51
90
0
ARC
8
0
10
184
20
18.0855306
40
1.5
50
180
51
270
0
ARC
8
0
10
184
20
18.75
40
1.5
50
90
51
180
0
ARC
8
0
10
198
20
18.75
40
1.5
50
0
51
90
0
ARC
8
0
10
201
20
17.5
40
1.5
50
180
51
270
0
ARC
8
0
10
216.5
20
14.5
40
1.5
50
0
51
90
0
ARC
8
0
10
219.5
20
9
40
1.5
50
180
51
270
0
ENDSEC
0
EOF